# xmcd
#
# Track frame offsets: 
#        183
#        13318
#        22923
#        30750
#        41913
#        53368
#        67855
#        78115
#        89488
#        100260
#        115215
#        127558
#        139475
#        156903
#        171883
#        181970
#        195270
#        207035
#
# Disc length: 2962 seconds
#
# Revision: 6
# Processed by: cddbd v1.5.2PL0 Copyright (c) Steve Scherf et al.
# Submitted via: ExactAudioCopy v0.99pb5
#
DISCID=d80b9012
DTITLE=Jacques Dutronc - Complètement Dutronc [CD2]
DYEAR=1991
DGENRE=Chanson
TTITLE0=Il est cinq heures, Paris s'éveille
TTITLE1=Transes dimanche
TTITLE2=A tout berzingue
TTITLE3=L'aventurier
TTITLE4=Le responsable
TTITLE5=L'hôtesse de l'air
TTITLE6=L'amour est le moteur du monde
TTITLE7=A la vie, à l'amour
TTITLE8=Le fond de l'air est frais
TTITLE9=Ma poule n'a plus que 29 poulets
TTITLE10=Il suffit de leur demander
TTITLE11=A la queue les Yvelines
TTITLE12=Le petit jardin
TTITLE13=La France défigurée
TTITLE14=Le dragueur des supermarchés
TTITLE15=L'amour prison
TTITLE16=J'comprends pas
TTITLE17=La ballade du bon et des méchants
EXTD=
EXTT0=
EXTT1=
EXTT2=
EXTT3=
EXTT4=
EXTT5=
EXTT6=
EXTT7=
EXTT8=
EXTT9=
EXTT10=
EXTT11=
EXTT12=
EXTT13=
EXTT14=
EXTT15=
EXTT16=
EXTT17=
PLAYORDER=
